<svg width="32" height="32" viewBox="0 0 32 32" fill="none" xmlns="http://www.w3.org/2000/svg">
<path fill-rule="evenodd" clip-rule="evenodd" d="M24.9461 8.46811L26.7071 6.70706L25.2929 5.29285L23.3049 7.28083C21.2483 5.96056 18.7935 5 16 5C11.2949 5 7.55083 7.72502 5.05118 10.304C3.79006 11.6052 2.81234 12.9027 2.14984 13.874C1.81796 14.3606 1.56356 14.7678 1.39072 15.0558C1.30426 15.1999 1.2381 15.3144 1.19276 15.3943C1.17008 15.4343 1.1526 15.4657 1.14038 15.4878L1.126 15.514L1.12178 15.5218L1.11991 15.5252L0.864258 16L1.11954 16.4741L1.12178 16.4782L1.126 16.486L1.14038 16.5122C1.1526 16.5343 1.17008 16.5657 1.19276 16.6057C1.2381 16.6856 1.30426 16.8001 1.39072 16.9442C1.56356 17.2322 1.81796 17.6394 2.14984 18.126C2.81234 19.0973 3.79006 20.3948 5.05118 21.696C5.64889 22.3127 6.31776 22.9377 7.05391 23.5318L5.29291 25.2928L6.70712 26.7071L8.69505 24.7191C10.7517 26.0394 13.2065 27 16 27C20.7052 27 24.4492 24.275 26.9489 21.696C28.21 20.3948 29.1877 19.0973 29.8502 18.126C30.1821 17.6394 30.4365 17.2322 30.6093 16.9442C30.6958 16.8001 30.7619 16.6856 30.8073 16.6057C30.8299 16.5657 30.8474 16.5343 30.8596 16.5122L30.874 16.486L30.8783 16.4782L30.8801 16.4748L31.1358 16L30.8801 15.5252L30.8783 15.5218L30.874 15.514L30.8596 15.4878C30.8474 15.4657 30.8299 15.4343 30.8073 15.3943C30.7619 15.3144 30.6958 15.1999 30.6093 15.0558C30.4365 14.7678 30.1821 14.3606 29.8502 13.874C29.1877 12.9027 28.21 11.6052 26.9489 10.304C26.3511 9.68732 25.6822 9.06226 24.9461 8.46811ZM3.15691 16C3.31058 16.253 3.52668 16.5952 3.80211 16.999C4.41846 17.9027 5.32536 19.1052 6.48731 20.304C7.09159 20.9275 7.75619 21.5413 8.47674 22.109L11.1092 19.4765C10.4108 18.4957 10 17.2958 10 16C10 12.6863 12.6863 10 16 10C17.2958 10 18.4957 10.4108 19.4765 11.1092L21.853 8.73271C20.1318 7.69824 18.1663 7 16 7C12.0898 7 8.83382 9.27498 6.48731 11.696C5.32536 12.8948 4.41846 14.0973 3.80211 15.001C3.52668 15.4048 3.31058 15.747 3.15691 16ZM23.5232 9.89095L20.8907 12.5234C21.5892 13.5043 22 14.7042 22 16C22 19.3137 19.3137 22 16 22C14.7042 22 13.5043 21.5892 12.5235 20.8907L10.1469 23.2673C11.8682 24.3017 13.8337 25 16 25C19.9102 25 23.1662 22.725 25.5127 20.304C26.6747 19.1052 27.5816 17.9027 28.1979 16.999C28.4733 16.5952 28.6894 16.253 28.8431 16C28.6894 15.747 28.4733 15.4048 28.1979 15.001C27.5816 14.0973 26.6747 12.8948 25.5127 11.696C24.9084 11.0725 24.2438 10.4587 23.5232 9.89095ZM13.968 19.4462C14.5635 19.7981 15.2582 20 16 20C18.2092 20 20 18.2091 20 16C20 15.2582 19.7981 14.5635 19.4462 13.968L13.968 19.4462ZM18.032 12.5538C17.4364 12.2019 16.7418 12 16 12C13.7909 12 12 13.7909 12 16C12 16.7418 12.2019 17.4364 12.5538 18.0319L18.032 12.5538ZM30.8801 15.5252L30 16C30.8805 15.5259 30.8801 15.5252 30.8801 15.5252ZM30 16L30.8801 16.4748C30.8801 16.4748 30.8805 16.4741 30 16ZM2.00001 16L1.11991 15.5252C1.11991 15.5252 1.11954 15.5259 2.00001 16Z" fill="white"/>
</svg>
