<svg width="32" height="32" viewBox="0 0 32 32" fill="none" xmlns="http://www.w3.org/2000/svg">
<path fill-rule="evenodd" clip-rule="evenodd" d="M12 5C9.642 5 7.66667 6.99603 7.66667 9.53846C7.66667 12.0809 9.642 14.0769 12 14.0769C14.358 14.0769 16.3333 12.0809 16.3333 9.53846C16.3333 6.99603 14.358 5 12 5ZM16.3355 14.3053C17.5691 13.1068 18.3333 11.4061 18.3333 9.53846C18.3333 5.96328 15.533 3 12 3C8.46696 3 5.66667 5.96328 5.66667 9.53846C5.66667 11.4061 6.43088 13.1068 7.66454 14.3053C4.9577 15.0646 3 17.6261 3 20.6154V29H21V20.6154C21 17.6261 19.0423 15.0646 16.3355 14.3053ZM9.33333 16.0769C6.97534 16.0769 5 18.073 5 20.6154V27H19V20.6154C19 18.073 17.0247 16.0769 14.6667 16.0769H9.33333Z" fill="white"/>
<path fill-rule="evenodd" clip-rule="evenodd" d="M24.3333 9.53846C24.3333 6.99603 22.358 5 20 5V3C23.533 3 26.3333 5.96328 26.3333 9.53846C26.3333 11.4061 25.5691 13.1068 24.3355 14.3053C27.0423 15.0646 29 17.6261 29 20.6154V29H24V27H27V20.6154C27 18.073 25.0247 16.0769 22.6667 16.0769H20V14.0769C22.358 14.0769 24.3333 12.0809 24.3333 9.53846Z" fill="white"/>
</svg>
